{"title":"Tetsuo 3:The Bullet Man DvDRip Xvid by ~LKRG~","uid":5939672,"size":1045674998,"categoryP":"video","categoryS":"movies","magnet":"?xt=urn:btih:0918632f8036d42b99a1667e59f4ae4d8eaf269e&amp;dn=Tetsuo+3%3AThe+Bullet+Man+DvDRip+Xvid+by+%7ELKRG%7E&amp;tr=udp%3A%2F%2Ftracker.openbittorrent.com%3A80&amp;tr=udp%3A%2F%2Fopen.demonii.com%3A1337&amp;tr=udp%3A%2F%2Ftracker.coppersurfer.tk%3A6969&amp;tr=udp%3A%2F%2Fexodus.desync.com%3A6969","seeders":6,"leechers":0,"uploader":"hiest","files":-1,"time":1289100924,"description":"Description:\n\n\nMaster director Shinya Tsukamoto unleashes a wild blend of action and breakneck editing in this third Tetsuo film. The world of mild-mannered Anthony (Eric Bossick) is torn apart when his young son is murdered, and the resulting stress transforms him. Horror strikes when Anthony discovers that his father used human guinea pigs during his scientific experiments for the U.S. military -- and that Anthony may be his father's crowning achievement.\n\n\nCast: Shinya Tsukamoto, Eric Bossick, Akiko Monou, Yuko Nakamura, Dwayne Lawler, Stephen Sarrazin, Tiger Charlie Gerhardt\nDirector: Shinya Tsukamoto\nLanguages:English &amp; Japanese\nFormat : AVI\nFormat/Info : Audio Video Interleave\nFile size : 997 MiB\nDuration : 1h 11mn\nOverall bit rate : 1 959 Kbps\n\nCodec ID : XVID\nCodec ID/Hint : XviD\nDuration : 1h 11mn\nBit rate : 1 500 Kbps\nWidth : 688 pixels\nHeight : 384 pixels\nDisplay aspect ratio : 16:9\nFrame rate : 23.976 fps\nResolution : 24 bits\nColorimetry : 4:2:0\nScan type : Progressive\nBits/(Pixel*Frame) : 0.237\nStream size : 764 MiB (77%)\nWriting library : XviD 1.1.2 (UTC 2006-11-01)\n\nAudio\nID : 1\nFormat : AC-3\nFormat/Info : Audio Coding 3\nCodec ID : 2000\nDuration : 1h 11mn\nBit rate mode : Constant\nBit rate : 448 Kbps\nChannel(s) : 6 channels\nChannel positions : Front: L C R, Surround: L R, LFE\nSampling rate : 48.0 KHz\nStream size : 228 MiB (23%)\nAlignment : Aligned on interleaves\nInterleave, duration : 32 ms (0.77 video frame)\n\n\n\n\n\n\n\n\n\n\n================================== &lt;a href=&quot;\nhttp://thepiratebay.se/user/hiest&quot; rel=&quot;nofollow&quot; target=&quot;_NEW&quot;&gt;\nhttp://thepiratebay.se/user/hiest&lt;/a&gt;\n==================================\n\n\n\n\n\n\n\n\n\n\n\nScreens: &lt;a href=&quot;\nhttp://img688.imageshack.us/img688/5497/vlcsnap2010110612h52m37.png&quot; rel=&quot;nofollow&quot; target=&quot;_NEW&quot;&gt;\nhttp://img688.imageshack.us/img688/5497/vlcsnap2010110612h52m37.png&lt;/a&gt;\n &lt;a href=&quot;\nhttp://img197.imageshack.us/img197/4483/vlcsnap2010110612h58m50.png&quot; rel=&quot;nofollow&quot; target=&quot;_NEW&quot;&gt;\nhttp://img197.imageshack.us/img197/4483/vlcsnap2010110612h58m50.png&lt;/a&gt;\n &lt;a href=&quot;\nhttp://img822.imageshack.us/img822/8383/vlcsnap2010110613h00m34.png&quot; rel=&quot;nofollow&quot; target=&quot;_NEW&quot;&gt;\nhttp://img822.imageshack.us/img822/8383/vlcsnap2010110613h00m34.png&lt;/a&gt;\n &lt;a href=&quot;\nhttp://img585.imageshack.us/img585/158/vlcsnap2010110613h01m01.png&quot; rel=&quot;nofollow&quot; target=&quot;_NEW&quot;&gt;\nhttp://img585.imageshack.us/img585/158/vlcsnap2010110613h01m01.png&lt;/a&gt;\n &lt;a href=&quot;\nhttp://img191.imageshack.us/img191/1057/vlcsnap2010110613h03m35.png&quot; rel=&quot;nofollow&quot; target=&quot;_NEW&quot;&gt;\nhttp://img191.imageshack.us/img191/1057/vlcsnap2010110613h03m35.png&lt;/a&gt;\n &lt;a href=&quot;\nhttp://img24.imageshack.us/img24/5199/vlcsnap2010110613h03m53.png&quot; rel=&quot;nofollow&quot; target=&quot;_NEW&quot;&gt;\nhttp://img24.imageshack.us/img24/5199/vlcsnap2010110613h03m53.png&lt;/a&gt;\n &lt;a href=&quot;\nhttp://img191.imageshack.us/img191/1295/vlcsnap2010110613h05m26.png&quot; rel=&quot;nofollow&quot; target=&quot;_NEW&quot;&gt;\nhttp://img191.imageshack.us/img191/1295/vlcsnap2010110613h05m26.png&lt;/a&gt;\n &lt;a href=&quot;\nhttp://img816.imageshack.us/img816/2919/vlcsnap2010110613h08m01.png&quot; rel=&quot;nofollow&quot; target=&quot;_NEW&quot;&gt;\nhttp://img816.imageshack.us/img816/2919/vlcsnap2010110613h08m01.png&lt;/a&gt;\n &lt;a href=&quot;\nhttp://img3.imageshack.us/img3/469/vlcsnap2010110613h09m43.png&quot; rel=&quot;nofollow&quot; target=&quot;_NEW&quot;&gt;\nhttp://img3.imageshack.us/img3/469/vlcsnap2010110613h09m43.png&lt;/a&gt;\n\n\n\n\nReview:\n\nA badass super-freaky asian flick,if you have'nt seen the first two they are highly recommended if you like sick,weird,twisted shit.If you have'nt seen the first two then you can still watch this one without being lost as this film stands on it's own.Also want to point out that this one is basically all in English except for a little Japanese here and there.","torrent":{"xt":"urn:btih:0918632f8036d42b99a1667e59f4ae4d8eaf269e","amp;dn":"Tetsuo+3%3AThe+Bullet+Man+DvDRip+Xvid+by+%7ELKRG%7E","amp;tr":["udp%3A%2F%2Ftracker.openbittorrent.com%3A80","udp%3A%2F%2Fopen.demonii.com%3A1337","udp%3A%2F%2Ftracker.coppersurfer.tk%3A6969","udp%3A%2F%2Fexodus.desync.com%3A6969"],"infoHash":"0918632f8036d42b99a1667e59f4ae4d8eaf269e","infoHashBuffer":{"type":"Buffer","data":[9,24,99,47,128,54,212,43,153,161,102,126,89,244,174,77,142,175,38,158]},"announce":[],"urlList":[]}}